HIERARCHY
ROOT pelvis
{
  OFFSET 0 100 0
  CHANNELS 6 Xposition Yposition Zposition Zrotation Xrotation Yrotation
  JOINT pelvis_right_femur
  {
    OFFSET -10.78128 -3.44521 -0.5502486
    CHANNELS 3 Zrotation Xrotation Yrotation
    JOINT right_femur_tibia
    {
      OFFSET -0.8047443 -44.0398 -0.1307829
      CHANNELS 3 Zrotation Xrotation Yrotation
      JOINT right_tibia_foot
      {
        OFFSET 3.006224 -47.83518 -5
        CHANNELS 3 Zrotation Xrotation Yrotation
        End Site
        {
          OFFSET 0 -5 15
        }
      }
    }
  }
  JOINT pelvis_left_femur
  {
    OFFSET 10.78128 -3.44521 -0.5502486
    CHANNELS 3 Zrotation Xrotation Yrotation
    JOINT left_femur_tibia
    {
      OFFSET 0.8047443 -44.0398 -0.1307829
      CHANNELS 3 Zrotation Xrotation Yrotation
      JOINT left_tibia_foot
      {
        OFFSET -4.370144 -48.10324 -4.275266
        CHANNELS 3 Zrotation Xrotation Yrotation
        End Site
        {
          OFFSET 0 -5 15
        }
      }
    }
  }
  JOINT pelvis_spine1
  {
    OFFSET 0 6.468898 -3.129235
    CHANNELS 3 Zrotation Xrotation Yrotation
    JOINT spine1
    {
      OFFSET 0 23.15396 4.99043
      CHANNELS 3 Zrotation Xrotation Yrotation
      JOINT spine2
      {
        OFFSET 0 20.79997 -5.064912
        CHANNELS 3 Zrotation Xrotation Yrotation
        JOINT neck
        {
          OFFSET 0 14.38658 9.616178
          CHANNELS 3 Zrotation Xrotation Yrotation
          End Site
          {
            OFFSET 0 20 0
          }
        }
      }
      JOINT right_manubrium
      {
        OFFSET -5.722621 16.35077 3.967754
        CHANNELS 3 Zrotation Xrotation Yrotation
        JOINT right_clavicle
        {
          OFFSET -13.16364 1.694482 -4.693211
          CHANNELS 3 Zrotation Xrotation Yrotation
          JOINT right_humerus
          {
            OFFSET -28.5034 -0.3100689 -2.792744
            CHANNELS 3 Zrotation Xrotation Yrotation
            JOINT right_radius
            {
              OFFSET -25.15693 0.02248979 -1.271978
              CHANNELS 3 Zrotation Xrotation Yrotation
              End Site
              {
                OFFSET -15 0 0
              }
            }
          }
        }
      }
      JOINT left_manubrium
      {
        OFFSET 5.722621 16.35077 3.967754
        CHANNELS 3 Zrotation Xrotation Yrotation
        JOINT left_clavicle
        {
          OFFSET 13.16364 1.694482 -4.693211
          CHANNELS 3 Zrotation Xrotation Yrotation
          JOINT left_humerus
          {
            OFFSET 29.39168 -1.063119 -2.237045
            CHANNELS 3 Zrotation Xrotation Yrotation
            JOINT left_radius
            {
              OFFSET 24.59957 -0.9528479 0.9047498
              CHANNELS 3 Zrotation Xrotation Yrotation
              End Site
              {
                OFFSET 15 -0 -0
              }
            }
          }
        }
      }
    }
  }
}
MOTION
Frames: 21
Frame Time: 0.0416666666667
-1057.148 106.1726 2491.132 -7.183479 -2.827472 -70.14662 5.838209 4.826832 0.7008682 -0 8.524531 -0 -10.36385 -7.051448 -2.566671 -0.05425176 -14.50219 -4.488763 -0 50.44144 -0 -2.047901 -3.884521 16.46023 -2.52687 -0.0474382 6.275205 0.3827114 11.05398 -5.641654 1.376791 21.74563 6.896538 2.794115 -18.22029 7.515654 4.803663 -18.19803 12.06755 82.67248 31.14217 -12.82659 -0 0 15.80403 -28.95143 17.48326 15.80319 3.28529 -18.35425 -4.656385 -88.08635 22.89602 18.61827 0 0 -16.73567 -1.976962 8.028102 16.72291
-1061.966 106.0167 2493.013 -6.542609 -2.547663 -70.69337 5.716209 8.592601 0.8365298 -0 7.27465 -0 -9.732696 -9.993426 -2.215155 1.339725 -19.33467 -3.530878 -0 40.37081 -0 -1.904287 -4.232413 17.13776 -2.423255 0.06580621 7.084008 -0.2049252 10.92614 -4.849505 1.564934 21.76865 6.893655 2.766623 -17.82377 7.710844 4.60373 -18.97422 12.00523 81.1871 30.68838 -10.48943 -0 0 17.971 -30.32238 17.87692 16.3263 3.240728 -17.53108 -4.262459 -89.23694 22.86637 20.74313 0 0 -15.05087 -2.31748 7.942496 17.25366
-1066.733 105.2408 2495 -5.713737 -1.902732 -71.13921 5.823723 11.46406 0.9561749 -0 7.014254 -0 -9.10465 -12.78674 -1.886401 2.793403 -22.81216 -2.392217 -0 29.16681 -0 -1.702413 -4.352239 17.57111 -2.323408 0.1809216 7.818264 -0.7214226 10.7336 -4.109185 1.741424 21.75832 6.911387 2.736631 -17.49852 7.922784 4.389537 -19.72829 11.9294 79.77857 30.14029 -8.254128 -0 0 20.0893 -31.56741 18.23228 16.8103 3.222145 -16.70631 -3.845803 -90.35504 22.77379 22.77272 0 0 -13.4486 -2.643053 7.862294 17.70236
-1071.605 104.0648 2497.195 -4.810036 -1.101878 -71.58279 5.802468 13.60111 0.9274488 -0 7.866945 -0 -8.560365 -15.23314 -1.504175 3.820398 -24.85406 -1.568396 -0 19.32395 -0 -1.553927 -4.160071 17.77174 -2.229582 0.2922433 8.433986 -1.141976 10.50526 -3.464234 1.900753 21.72444 6.94585 2.700365 -17.24446 8.14518 4.176408 -20.40239 11.84569 78.55646 29.53883 -6.285304 -0 0 22.00652 -32.62085 18.54728 17.21938 3.224248 -15.93398 -3.453599 -91.35262 22.63921 24.55818 0 0 -12.04238 -2.936618 7.790477 18.05296
-1076.768 102.8004 2499.675 -4.00703 -0.460579 -72.10715 5.309149 15.34397 0.6936331 -0 9.770589 -0 -8.118821 -16.81973 -0.9990197 3.96247 -25.58047 -1.560445 -0 12.70457 -0 -1.6072 -3.833284 17.92027 -2.142918 0.3942636 8.891107 -1.451826 10.28238 -2.954018 2.039898 21.68248 6.991354 2.653939 -17.04379 8.371425 3.985793 -20.92804 11.76352 77.62814 28.9314 -4.752067 -0 0 23.56312 -33.42453 18.82487 17.51603 3.240895 -15.27341 -3.142661 -92.13872 22.49688 25.94163 0 0 -10.94108 -3.185724 7.725233 18.30087
-1082.371 101.7254 2502.47 -3.508172 -0.2805527 -72.73197 4.169641 17.12338 0.3233325 -0 12.62206 -0 -7.82246 -16.85852 -0.3623194 3.027986 -25.2921 -2.650304 -0 9.920715 -0 -1.97179 -3.722441 18.2623 -2.064743 0.4819786 9.164892 -1.650349 10.10691 -2.604046 2.157517 21.65101 7.042368 2.595615 -16.86864 8.594301 3.840663 -21.24454 11.69376 77.06851 28.37502 -3.781095 -0 0 24.62984 -33.94809 19.07496 17.67459 3.265575 -14.77719 -2.961887 -92.6447 22.38722 26.80096 0 0 -10.2217 -3.385051 7.667097 18.45681
-1088.461 101.019 2505.542 -3.431716 -0.7242807 -73.38108 2.439785 19.11888 0.03178395 -0 16.50003 -0 -7.715425 -14.63345 0.3399887 1.163372 -24.28429 -4.716505 -0 10.38922 -0 -2.569121 -4.154507 18.90343 -1.996832 0.5501016 9.248506 -1.748979 10.00918 -2.425253 2.252316 21.64475 7.096542 2.527762 -16.69401 8.80687 3.756797 -21.31353 11.64259 76.91117 27.93682 -3.436702 -0 0 25.12749 -34.19965 19.31758 17.68858 3.296777 -14.48837 -2.936425 -92.82984 22.34173 27.06626 0 0 -9.930225 -3.527332 7.624005 18.53502
-1094.944 100.7776 2508.788 -3.733167 -1.732071 -73.88607 0.4070892 20.89234 0.09014243 -0 21.82629 -0 -7.801478 -9.657699 0.9738836 -1.215219 -22.63363 -7.193131 -0 12.88229 -0 -3.069872 -5.232751 19.68376 -1.941098 0.592163 9.144756 -1.762573 10.00172 -2.421517 2.321449 21.66883 7.156014 2.45607 -16.50858 9.003888 3.736368 -21.12192 11.6071 77.16487 27.68368 -3.737361 -0 0 25.02189 -34.21202 19.57865 17.56524 3.342289 -14.44267 -3.064931 -92.66979 22.37192 26.70483 0 0 -10.10053 -3.593375 7.609179 18.53554
-1101.596 101.059 2512.076 -4.241938 -3.000122 -74.04207 -1.418302 21.361 0.5902511 -0 29.16562 -0 -8.064741 -2.212452 1.360877 -3.531825 -20.17213 -9.256842 -0 16.06538 -0 -3.04524 -6.758165 20.27971 -1.899459 0.600581 8.858588 -1.701406 10.07877 -2.594917 2.359914 21.71768 7.226178 2.386862 -16.31832 9.182401 3.766849 -20.68013 11.5757 77.83037 27.66169 -4.675052 -0 0 24.31761 -34.01957 19.8779 17.31605 3.418479 -14.66517 -3.32522 -92.15117 22.46665 25.70929 0 0 -10.76088 -3.552533 7.633629 18.43629
-1108.119 101.887 2515.26 -4.807394 -4.050049 -73.7143 -2.414043 19.31736 1.277582 -0 38.49548 -0 -8.490621 6.098202 1.342089 -5.222654 -16.69226 -10.27607 -0 18.77633 -0 -2.272485 -8.333683 20.46891 -1.873649 0.5684458 8.399256 -1.570202 10.21803 -2.942225 2.361904 21.77769 7.312681 2.324869 -16.14236 9.341089 3.824023 -20.02265 11.53214 78.8986 27.87518 -6.210853 -0 0 23.06651 -33.6467 20.21695 16.95291 3.545532 -15.15958 -3.679121 -91.28283 22.59542 24.1087 0 0 -11.91642 -3.373584 7.698408 18.20083
-1114.236 103.1943 2518.223 -5.427665 -4.457455 -72.9409 -2.241393 14.27793 1.762057 -0 48.31251 -0 -9.009109 12.63958 0.855471 -5.980222 -12.23182 -10.2627 -0 20.18106 -0 -0.9402143 -9.615248 20.29616 -1.864425 0.4927735 7.789103 -1.373772 10.38546 -3.446478 2.324131 21.83172 7.417271 2.27267 -16.00355 9.478313 3.878085 -19.20786 11.46077 80.33343 28.27683 -8.255679 -0 0 21.37914 -33.11141 20.57438 16.48974 3.740986 -15.89815 -4.076222 -90.11185 22.71665 21.98868 0 0 -13.52326 -3.038232 7.790261 17.79653
-1119.798 104.7593 2520.918 -6.164243 -4.158567 -71.93078 -1.204409 6.966226 1.874228 -0 55.63592 -0 -9.440419 15.31326 -0.03733259 -5.889788 -7.210197 -9.792393 -0 19.94058 -0 0.4737075 -10.57628 19.94114 -1.870626 0.3769981 7.067341 -1.122438 10.54535 -4.074531 2.248966 21.8638 7.534074 2.231572 -15.91891 9.589328 3.902335 -18.30864 11.35142 82.06043 28.77933 -10.66892 -0 0 19.41114 -32.43165 20.90978 15.94327 4.01408 -16.82487 -4.462291 -88.72247 22.79104 19.48807 0 0 -15.48407 -2.548194 7.882803 17.21126
-1124.821 106.2259 2523.375 -6.900337 -3.500059 -70.93728 -0.005854062 -1.104376 1.617897 -0 57.56211 -0 -9.582436 14.05777 -1.154501 -5.335257 -2.253801 -9.395903 -0 18.28733 -0 1.523869 -11.57339 19.45457 -1.889294 0.2300941 6.281713 -0.8306661 10.67148 -4.786409 2.144237 21.86194 7.649614 2.202993 -15.89719 9.664707 3.880883 -17.39489 11.20175 83.97775 29.28636 -13.29053 -0 0 17.31973 -31.62582 21.17511 15.33076 4.363759 -17.87395 -4.791839 -87.21111 22.79325 16.76207 0 0 -17.67824 -1.921807 7.943579 16.45782
-1129.465 107.2269 2525.66 -7.310805 -2.917752 -70.12314 0.7878429 -8.559753 0.9533722 -0 53.1611 -0 -9.344508 10.6033 -2.23084 -4.775252 2.152751 -9.175334 -0 15.87168 -0 1.977048 -13.06411 18.71936 -1.916813 0.06331043 5.476676 -0.5116236 10.75081 -5.546372 2.020047 21.81801 7.747988 2.189183 -15.94318 9.692921 3.810627 -16.52197 11.01648 85.97581 29.72143 -15.97487 -0 0 15.22857 -30.71404 21.32852 14.67031 4.780372 -18.98638 -5.035598 -85.66212 22.71377 13.94875 0 0 -19.99605 -1.1871 7.943958 15.56761
-1133.956 107.5274 2527.835 -7.11543 -2.618283 -69.51886 0.9999172 -14.731 -0.144097 -0 43.88483 -0 -8.747546 6.9988 -3.030464 -4.52175 5.842056 -8.973345 -0 13.46723 -0 1.805468 -15.18577 17.64585 -1.949532 -0.1118277 4.691188 -0.1761964 10.77957 -6.32221 1.886416 21.72774 7.817708 2.192522 -16.06001 9.666815 3.698306 -15.73283 10.80605 87.94141 30.03821 -18.58992 -0 0 13.23266 -29.7281 21.34627 13.98719 5.246962 -20.1083 -5.179405 -84.14845 22.55497 11.17464 0 0 -22.33931 -0.3816422 7.868196 14.5864
-1138.518 107.0916 2529.955 -6.284013 -2.546118 -69.06797 0.7913382 -19.57157 -1.513993 -0 32.43454 -0 -7.863817 4.527576 -3.457393 -4.636721 8.878734 -8.660604 -0 11.75097 -0 1.145905 -17.60498 16.3118 -1.98343 -0.2833283 3.9641 0.1621237 10.75957 -7.076047 1.753395 21.59358 7.855502 2.21365 -16.24332 9.589684 3.557384 -15.06313 10.58627 89.75204 30.21917 -20.99774 -0 0 11.42238 -28.72249 21.23064 13.31942 5.737687 -21.17978 -5.222091 -82.74577 22.33088 8.578999 0 0 -24.59704 0.4421518 7.719766 13.57668
-1143.329 106.061 2532.08 -5.021371 -2.529446 -68.69558 0.4880629 -23.28123 -2.810762 -0 21.39491 -0 -6.790033 3.530333 -3.581596 -4.988484 11.39992 -8.218996 -0 11.2396 -0 0.2327376 -19.71958 14.92549 -2.013914 -0.4383903 3.335914 0.4827468 10.69962 -7.760212 1.631885 21.4288 7.865259 2.249444 -16.47265 9.476671 3.406207 -14.53857 10.37729 91.28583 30.27239 -23.05616 -0 0 9.889295 -27.77225 21.01134 12.71375 6.216059 -22.13247 -5.177746 -81.53407 22.07055 6.314203 0 0 -26.63348 1.21707 7.522127 12.61794
-1148.527 104.6892 2534.259 -3.640539 -2.416715 -68.35283 0.4234145 -26.00333 -3.645591 -0 12.52573 -0 -5.634578 3.72153 -3.580948 -5.376681 13.50819 -7.686729 -0 12.31948 -0 -0.7174968 -20.95038 13.70649 -2.036372 -0.5642065 2.842928 0.7587639 10.61817 -8.324092 1.53346 21.25843 7.853432 2.292059 -16.70877 9.350591 3.265391 -14.1673 10.19977 92.45055 30.22532 -24.64861 -0 0 8.707956 -26.95555 20.73816 12.21261 6.637248 -22.90117 -5.078104 -80.58146 21.8167 4.514131 0 0 -28.30605 1.872174 7.31089 11.79746
-1154.211 103.2779 2536.524 -2.455904 -2.137374 -68.03312 0.8487691 -27.70213 -3.716837 -0 6.715518 -0 -4.507936 4.555045 -3.653043 -5.623067 15.21191 -7.103232 -0 15.28844 -0 -1.604467 -20.90884 12.79663 -2.046972 -0.6494102 2.509771 0.9623006 10.5415 -8.725724 1.469235 21.11427 7.824047 2.329894 -16.90122 9.234946 3.153422 -13.93793 10.06968 93.20678 30.11193 -25.71237 -0 0 7.916543 -26.33338 20.46601 11.84166 6.955654 -23.4383 -4.967712 -79.92677 21.61667 3.260198 0 0 -29.4981 2.348741 7.120035 11.19428
-1160.426 102.1268 2538.884 -1.731231 -1.70917 -67.77377 1.878757 -28.17022 -2.889466 -0 4.202108 -0 -3.532073 5.452317 -3.943204 -5.605224 16.37821 -6.501726 -0 20.34569 -0 -2.45764 -19.44581 12.24941 -2.042917 -0.6850851 2.347973 1.070098 10.49571 -8.937978 1.448779 21.02625 7.776335 2.350299 -17.00152 9.148161 3.082145 -13.82812 9.995121 93.56109 29.95787 -26.23536 -0 0 7.519942 -25.93929 20.23904 11.60662 7.134655 -23.71801 -4.890528 -79.57905 21.51123 2.577051 0 0 -30.13725 2.60988 6.970919 10.86548
-1167.128 101.487 2541.318 -1.650132 -1.227622 -67.6502 3.4219 -27.10991 -1.267488 -0 4.716527 -0 -2.862572 5.894427 -4.492087 -5.265533 16.69305 -5.934362 -0 27.48091 -0 -3.362505 -16.68395 12.07915 -2.022036 -0.6649122 2.361399 1.06624 10.4964 -8.945953 1.479705 21.01488 7.705534 2.342901 -16.97457 9.101111 3.054245 -13.81913 9.976586 93.53375 29.76957 -26.22346 -0 0 7.514613 -25.7813 20.07941 11.49926 7.154135 -23.728 -4.874004 -79.53428 21.52814 2.459544 0 0 -30.18748 2.639431 6.869992 10.84044
